#Comment line ignore any data following # character 
#Hierarchical Translation and Rotation (.htr) file 
[Header]	
#Header keywords are followed by a single value 
FileType HTR		#Single word string
DataType HTRS		#Translation followed by rotation and scale data
FileVersion 1		#integer
NumSegments 25		#integer
NumFrames 4		#integer
DataFrameRate 30		#integer, data frame rate in this file
EulerRotationOrder ZYX
CalibrationUnits mm
RotationUnits Degrees
GlobalAxisofGravity Y
BoneLengthAxis Y
ScaleFactor 1.00
[SegmentNames&Hierarchy]
#CHILD	PARENT
BN_Tick_Root GLOBAL
BN_Torso BN_Tick_Root
BN_L_Leg_Front01 BN_Torso
BN_L_Leg_Rear01 BN_Torso
BN_MetalTop BN_Torso
BN_Neck BN_Torso
BN_R_Leg_Front01 BN_Torso
BN_R_Leg_Rear01 BN_Torso
BN_Sack BN_Torso
BN_L_Leg_Front02 BN_L_Leg_Front01
BN_L_Leg_Front03 BN_L_Leg_Front02
BN_L_Leg_Rear02 BN_L_Leg_Rear01
BN_L_Leg_Rear03 BN_L_Leg_Rear02
BN_Head BN_Neck
BN_Needle BN_Head
BN_R_Leg_Front02 BN_R_Leg_Front01
BN_R_Leg_Front03 BN_R_Leg_Front02
BN_R_Leg_Rear02 BN_R_Leg_Rear01
BN_R_Leg_Rear03 BN_R_Leg_Rear02
BN_SackDef01 BN_Sack
BN_SackDef02 BN_Sack
BN_SackDef03 BN_Sack
BN_SackDef04 BN_Sack
BN_SackDef05 BN_Sack
BN_SackDef06 BN_Sack
[BasePosition]
#SegmentName Tx, Ty, Tz, Rx, Ry, Rz, BoneLength
BN_Tick_Root 0.000000 0.000000 0.000000 -90.000000 0.000000 0.000000 10.000000 
BN_Torso 0.000000 0.000000 0.000000 0.000000 0.000000 0.000000 10.000000 
BN_L_Leg_Front01 0.000000 0.000000 0.000000 0.000000 0.000000 0.000000 10.000000 
BN_L_Leg_Rear01 0.000000 0.000000 0.000000 0.000000 0.000000 0.000000 10.000000 
BN_MetalTop 0.000000 0.000000 0.000000 0.000000 0.000000 0.000000 10.000000 
BN_Neck 0.000000 0.000000 0.000000 0.000000 0.000000 0.000000 10.000000 
BN_R_Leg_Front01 0.000000 0.000000 0.000000 0.000000 0.000000 0.000000 10.000000 
BN_R_Leg_Rear01 0.000000 0.000000 0.000000 0.000000 0.000000 0.000000 10.000000 
BN_Sack 0.000000 0.000000 0.000000 0.000000 0.000000 0.000000 10.000000 
BN_L_Leg_Front02 0.000000 0.000000 0.000000 0.000000 0.000000 0.000000 10.000000 
BN_L_Leg_Front03 0.000000 0.000000 0.000000 0.000000 0.000000 0.000000 10.000000 
BN_L_Leg_Rear02 0.000000 0.000000 0.000000 0.000000 0.000000 0.000000 10.000000 
BN_L_Leg_Rear03 0.000000 0.000000 0.000000 0.000000 0.000000 0.000000 10.000000 
BN_Head 0.000000 0.000000 0.000000 0.000000 0.000000 0.000000 10.000000 
BN_Needle 0.000000 0.000000 0.000000 0.000000 0.000000 0.000000 10.000000 
BN_R_Leg_Front02 0.000000 0.000000 0.000000 0.000000 0.000000 0.000000 10.000000 
BN_R_Leg_Front03 0.000000 0.000000 0.000000 0.000000 0.000000 0.000000 10.000000 
BN_R_Leg_Rear02 0.000000 0.000000 0.000000 0.000000 0.000000 0.000000 10.000000 
BN_R_Leg_Rear03 0.000000 0.000000 0.000000 0.000000 0.000000 0.000000 10.000000 
BN_SackDef01 0.000000 0.000000 0.000000 0.000000 0.000000 0.000000 10.000000 
BN_SackDef02 0.000000 0.000000 0.000000 0.000000 0.000000 0.000000 10.000000 
BN_SackDef03 0.000000 0.000000 0.000000 0.000000 0.000000 0.000000 10.000000 
BN_SackDef04 0.000000 0.000000 0.000000 0.000000 0.000000 0.000000 10.000000 
BN_SackDef05 0.000000 0.000000 0.000000 0.000000 0.000000 0.000000 10.000000 
BN_SackDef06 0.000000 0.000000 0.000000 0.000000 0.000000 0.000000 10.000000 
#Beginning of Data. Separated by tabs
#Fr	Tx	Ty	Tz	Rx	Ry	Rz	SF
[BN_Tick_Root]
15 0.000000 0.000000 0.000000 0.000000 0.000000 -0.000020 0.000000
16 0.000000 0.000000 0.000000 0.000000 0.000000 -0.000020 0.000000
17 0.000000 0.000000 0.000000 0.000000 0.000000 -0.000020 0.000000
18 0.000000 0.000000 0.000000 0.000000 0.000000 -0.000020 0.000000
[BN_Torso]
15 3.564842 6.152411 93.713875 -28.751471 -31.245298 -7.623216 93.983246
16 3.564708 6.155992 93.739372 -28.751463 -31.245291 -7.623210 94.008904
17 3.564575 6.159573 93.764870 -28.682775 -31.024912 -5.317576 94.034554
18 3.564441 6.163153 93.790375 -28.553156 -30.524900 -0.233501 94.060219
[BN_L_Leg_Front01]
15 -68.477791 10.734189 -26.804373 -60.530933 -22.459656 146.438812 74.316254
16 -68.477791 10.734189 -26.804373 -60.530918 -22.459656 146.438812 74.316254
17 -68.477791 10.734189 -26.804373 -58.843174 -22.353033 143.848877 74.316254
18 -68.477791 10.734189 -26.804373 -55.236179 -21.900234 138.215424 74.316254
[BN_L_Leg_Rear01]
15 -72.133743 -73.994843 -18.268616 23.424452 18.083359 -142.310196 104.939293
16 -72.133743 -73.994843 -18.268616 23.423443 17.970999 -142.745346 104.939293
17 -72.133743 -73.994843 -18.268616 24.098080 16.317326 -144.902359 104.939293
18 -72.133743 -73.994843 -18.268616 25.779964 12.755625 -149.532394 104.939293
[BN_MetalTop]
15 0.000008 13.737477 26.403606 105.597397 -26.675592 -107.580635 29.763546
16 0.000008 13.737477 26.403606 105.597397 -26.675596 -107.580635 29.763546
17 0.000008 13.737477 26.403606 105.318558 -28.083529 -108.922852 29.763546
18 0.000008 13.737477 26.403606 105.002800 -30.608540 -111.547043 29.763546
[BN_Neck]
15 0.000014 95.233284 10.002091 -148.348755 -29.408237 89.999931 95.757088
16 0.000014 95.233284 10.002091 -148.348755 -29.408234 89.999916 95.757088
17 0.000014 95.233284 10.002091 -148.348770 -29.408243 89.999939 95.757088
18 0.000014 95.233284 10.002091 -148.348770 -29.408243 89.999939 95.757088
[BN_R_Leg_Front01]
15 68.477768 10.734107 -26.804314 99.000572 20.942982 72.641441 74.316193
16 68.477768 10.734107 -26.804314 99.000587 20.942987 72.641449 74.316193
17 68.477768 10.734107 -26.804314 99.413681 22.532276 70.734528 74.316193
18 68.477768 10.734107 -26.804314 100.152405 26.102354 66.377716 74.316193
[BN_R_Leg_Rear01]
15 72.133751 -73.994873 -18.268644 -49.395508 71.155884 -15.836372 104.939331
16 72.133751 -73.994873 -18.268644 -49.395500 71.155876 -15.836376 104.939331
17 72.133751 -73.994873 -18.268644 -54.361359 71.692406 -22.618801 104.939331
18 72.133751 -73.994873 -18.268644 -65.905708 72.254234 -38.191158 104.939331
[BN_Sack]
15 -0.000000 -78.024918 33.657791 88.414505 -9.998265 -94.277321 84.974907
16 -0.000000 -78.024918 33.657791 89.695045 -6.800308 -90.460472 84.974907
17 -0.000000 -78.024918 33.657791 91.401131 -3.564801 -86.689018 84.974907
18 -0.000000 -78.024918 33.657791 88.073006 -9.806279 -93.440628 84.974907
[BN_L_Leg_Front02]
15 142.805023 -0.000015 -0.000104 0.183235 0.296967 -92.703934 142.805023
16 142.805023 -0.000015 -0.000104 0.183235 0.296967 -92.703934 142.805023
17 142.805023 -0.000015 -0.000104 0.183235 0.296967 -92.703934 142.805023
18 142.805023 -0.000015 -0.000104 0.183235 0.296967 -92.703934 142.805023
[BN_L_Leg_Front03]
15 124.143021 -0.000045 0.000007 0.353362 -0.441911 100.329872 124.143021
16 124.143021 -0.000045 0.000007 0.353362 -0.441911 100.329872 124.143021
17 124.143021 -0.000045 0.000007 0.353362 -0.441911 100.329872 124.143021
18 124.143021 -0.000045 0.000007 0.353362 -0.441911 100.329872 124.143021
[BN_L_Leg_Rear02]
15 139.939041 0.000075 -0.000022 0.143457 -0.186082 75.574715 139.939041
16 139.939041 0.000075 -0.000022 0.143457 -0.186082 75.574715 139.939041
17 139.939041 0.000075 -0.000022 0.143457 -0.186082 75.574715 139.939041
18 139.939041 0.000075 -0.000022 0.143457 -0.186082 75.574715 139.939041
[BN_L_Leg_Rear03]
15 142.839615 0.000179 -0.000060 0.000003 -0.000003 -88.940514 142.839615
16 142.839615 0.000179 -0.000060 0.000003 -0.000003 -88.940514 142.839615
17 142.839615 0.000179 -0.000060 0.000003 -0.000003 -88.940514 142.839615
18 142.839615 0.000179 -0.000060 0.000003 -0.000003 -88.940514 142.839615
[BN_Head]
15 57.062447 -0.000030 0.000000 31.760065 29.789423 -33.763443 57.062447
16 57.062447 -0.000030 0.000000 31.760077 29.789436 -33.763454 57.062447
17 57.062447 -0.000030 0.000000 31.760077 29.789436 -33.763454 57.062447
18 57.062447 -0.000030 0.000000 31.760077 29.789436 -33.763454 57.062447
[BN_Needle]
15 33.915161 69.677544 -0.000060 0.000003 0.000030 87.896805 77.493217
16 33.915161 69.677544 -0.000060 0.000003 0.000030 87.896805 77.493217
17 33.915161 69.677544 -0.000060 0.000003 0.000030 87.896805 77.493217
18 33.915161 69.677544 -0.000060 0.000003 0.000030 87.896805 77.493217
[BN_R_Leg_Front02]
15 142.804947 -0.000060 0.000060 -0.193036 0.296610 92.706657 142.804947
16 142.804947 -0.000060 0.000060 -0.193036 0.296610 92.706657 142.804947
17 142.804947 -0.000060 0.000060 -0.193036 0.296610 92.706657 142.804947
18 142.804947 -0.000060 0.000060 -0.193036 0.296610 92.706657 142.804947
[BN_R_Leg_Front03]
15 124.143005 -0.000060 -0.000156 -0.353343 -0.441338 -100.329697 124.143005
16 124.143005 -0.000060 -0.000156 -0.353343 -0.441338 -100.329697 124.143005
17 124.143005 -0.000060 -0.000156 -0.353343 -0.441338 -100.329697 124.143005
18 124.143005 -0.000060 -0.000156 -0.353343 -0.441338 -100.329697 124.143005
[BN_R_Leg_Rear02]
15 139.939011 -0.000149 0.000015 -0.130192 -0.173712 -75.585640 139.939011
16 139.939011 -0.000149 0.000015 -0.130192 -0.173712 -75.585640 139.939011
17 139.939011 -0.000149 0.000015 -0.130192 -0.173712 -75.585640 139.939011
18 139.939011 -0.000149 0.000015 -0.130192 -0.173712 -75.585640 139.939011
[BN_R_Leg_Rear03]
15 142.839417 0.000075 0.000119 0.000002 0.000017 88.940636 142.839417
16 142.839417 0.000075 0.000119 0.000002 0.000017 88.940636 142.839417
17 142.839417 0.000075 0.000119 0.000002 0.000017 88.940636 142.839417
18 142.839417 0.000075 0.000119 0.000002 0.000017 88.940636 142.839417
[BN_SackDef01]
15 249.782272 -3.760844 42.949425 -128.408218 -44.374973 -11.740845 253.475800
16 249.782272 -3.760844 42.949425 -128.408218 -44.374973 -11.740845 253.475800
17 249.782272 -3.760844 42.949425 -128.408218 -44.374973 -11.740845 253.475800
18 249.782272 -3.760844 42.949425 -128.408218 -44.374973 -11.740845 253.475800
[BN_SackDef02]
15 138.789795 -62.131748 45.674385 32.077126 -27.375721 -88.781525 158.773758
16 138.789795 -62.131748 45.674385 32.077126 -27.375721 -88.781525 158.773758
17 138.789795 -62.131748 45.674385 32.077126 -27.375721 -88.781525 158.773758
18 138.789795 -62.131748 45.674385 32.077126 -27.375721 -88.781525 158.773758
[BN_SackDef03]
15 249.782272 -3.760785 -42.949661 18.144459 44.375008 -11.740894 253.475845
16 249.782272 -3.760785 -42.949661 18.144459 44.375008 -11.740894 253.475845
17 249.782272 -3.760785 -42.949661 18.144459 44.375008 -11.740894 253.475845
18 249.782272 -3.760785 -42.949661 18.144459 44.375008 -11.740894 253.475845
[BN_SackDef04]
15 138.789780 -62.131645 -45.674473 146.059982 27.375723 -88.781555 158.773743
16 138.789780 -62.131645 -45.674473 146.059982 27.375723 -88.781555 158.773743
17 138.789780 -62.131645 -45.674473 146.059982 27.375723 -88.781555 158.773743
18 138.789780 -62.131645 -45.674473 146.059982 27.375723 -88.781555 158.773743
[BN_SackDef05]
15 118.790161 46.167137 -63.831196 0.155741 51.314110 90.605110 142.537460
16 118.790161 46.167137 -63.831196 0.155741 51.314110 90.605110 142.537460
17 118.790161 46.167137 -63.831196 0.155741 51.314110 90.605110 142.537460
18 118.790161 46.167137 -63.831196 0.155741 51.314110 90.605110 142.537460
[BN_SackDef06]
15 118.790207 46.167194 63.831219 152.058487 -51.314072 90.605019 142.537537
16 118.790207 46.167194 63.831219 152.058487 -51.314072 90.605019 142.537537
17 118.790207 46.167194 63.831219 152.058487 -51.314072 90.605019 142.537537
18 118.790207 46.167194 63.831219 152.058487 -51.314072 90.605019 142.537537
